<?xml version="1.0" encoding="utf-8"?>
<!-- Generator: Adobe Illustrator 25.2.0, SVG Export Plug-In . SVG Version: 6.00 Build 0)  -->
<svg version="1.1" id="Layer_1" xmlns="http://www.w3.org/2000/svg" xmlns:xlink="http://www.w3.org/1999/xlink" x="0px" y="0px"
	 viewBox="0 0 850.39 850.39" style="enable-background:new 0 0 850.39 850.39;" xml:space="preserve">
<style type="text/css">
	.st0{fill:#FFFFFF;}
	.st1{fill:none;stroke:#000000;}
	.st2{fill:#679941;}
	.st3{fill:none;stroke:#000000;stroke-miterlimit:10;}
</style>
<ellipse class="st0" cx="425.2" cy="425.2" rx="425.2" ry="413.84"/>
<path class="st1" d="M671.77,178.81"/>
<path class="st1" d="M320.89,102.83"/>
<path class="st2" d="M95.35,566.72c22.31,51.8,60.94,103.39,125.34,146.41c96.62,64.54,202.47,57.7,202.47,57.7
	s110.63,4.06,208.32-73.95s128.58-167.4,128.58-167.4s39.24-101.99,0-224.49c0,0-82.03-222.46-330.64-225.51
	c0,0-45.2-2.32-101.01,14.82c-39.33,12.08-7.53,11.08-7.53,11.08c88.97-0.95,107.22,0.5,110.94,1.19c2.3,0.43,4.61,0.87,6.93,1.23
	c238.09,36.75,304.61,198.2,304.61,198.2s41.33,93.05,5.01,218.6c0,0-58.03,158.06-187.45,162.12c0,0-42.16,4.06-78.9-6.91
	c0,0-67.63-15.25-165.74-86.25c0,0-82.66-55.56-131.92-68.97c0,0-84.75-28.04-92.26,6.5C92.11,531.09,90.25,549.92,95.35,566.72
	L95.35,566.72z"/>
<path class="st3" d="M71.45,480.22"/>
<path class="st2" d="M70.06,468.96c0,0,0.76,18.25,35.83,11.26s62.62,0,62.62,0c61.37,12.92,108.13,44.37,108.13,44.37l135.26,86.95
	c0,0,120.23,81.26,203.73,38.6s111.47-125.55,111.47-125.55s35.49-136.32,1.04-216.87c0,0-40.7-93.96-217.29-151.25
	c0,0-59.7-26.41-213.33-36.97c0,0-43.25-1.34-59.7,8.74c0,0-70.28,36.55-125.86,129.67c-19.48,32.64-32.68,68.51-38.73,105.8
	C68.61,392.08,65.7,428.73,70.06,468.96L70.06,468.96z"/>
</svg>
